<mxfile host="app.diagrams.net" modified="2023-02-23T14:00:35.598Z" agent="5.0 (Windows NT 10.0; Win64; x64) AppleWebKit/537.36 (KHTML, like Gecko) Chrome/110.0.0.0 Safari/537.36" etag="5BQmcFMptKkD0LngOpPp" version="20.8.23" type="github">
  <diagram name="Page-1" id="58cdce13-f638-feb5-8d6f-7d28b1aa9fa0">
    <mxGraphModel dx="2534" dy="1646" grid="1" gridSize="10" guides="1" tooltips="1" connect="1" arrows="1" fold="1" page="1" pageScale="1" pageWidth="1100" pageHeight="850" background="none" math="0" shadow="0">
      <root>
        <mxCell id="0" />
        <mxCell id="1" parent="0" />
        <mxCell id="WzsJ2bpUAo-4emYzyqWX-7" style="edgeStyle=orthogonalEdgeStyle;rounded=0;orthogonalLoop=1;jettySize=auto;html=1;entryX=0.5;entryY=0;entryDx=0;entryDy=0;strokeColor=#000000;" parent="1" source="382b91b5511bd0f7-1" target="WzsJ2bpUAo-4emYzyqWX-6" edge="1">
          <mxGeometry relative="1" as="geometry" />
        </mxCell>
        <mxCell id="382b91b5511bd0f7-1" value="" style="ellipse;html=1;shape=startState;fillColor=#000000;strokeColor=#000000;rounded=1;shadow=0;comic=0;labelBackgroundColor=none;fontFamily=Verdana;fontSize=12;fontColor=#000000;align=center;direction=south;" parent="1" vertex="1">
          <mxGeometry x="535" y="-30" width="30" height="30" as="geometry" />
        </mxCell>
        <mxCell id="WzsJ2bpUAo-4emYzyqWX-5" style="edgeStyle=orthogonalEdgeStyle;rounded=0;orthogonalLoop=1;jettySize=auto;html=1;exitX=0.5;exitY=1;exitDx=0;exitDy=0;entryX=0.5;entryY=0;entryDx=0;entryDy=0;strokeColor=#000000;" parent="1" source="382b91b5511bd0f7-6" target="WzsJ2bpUAo-4emYzyqWX-2" edge="1">
          <mxGeometry relative="1" as="geometry" />
        </mxCell>
        <mxCell id="WzsJ2bpUAo-4emYzyqWX-13" style="edgeStyle=orthogonalEdgeStyle;rounded=0;orthogonalLoop=1;jettySize=auto;html=1;strokeColor=#000000;fontSize=19;exitX=0.015;exitY=0.165;exitDx=0;exitDy=0;exitPerimeter=0;entryX=0.999;entryY=0.333;entryDx=0;entryDy=0;entryPerimeter=0;" parent="1" source="382b91b5511bd0f7-6" target="WzsJ2bpUAo-4emYzyqWX-12" edge="1">
          <mxGeometry relative="1" as="geometry">
            <mxPoint x="390" y="380" as="targetPoint" />
          </mxGeometry>
        </mxCell>
        <mxCell id="WzsJ2bpUAo-4emYzyqWX-31" style="edgeStyle=orthogonalEdgeStyle;rounded=0;orthogonalLoop=1;jettySize=auto;html=1;exitX=0;exitY=0.553;exitDx=0;exitDy=0;entryX=1;entryY=0.25;entryDx=0;entryDy=0;strokeColor=#000000;fontSize=11;exitPerimeter=0;" parent="1" source="382b91b5511bd0f7-6" target="WzsJ2bpUAo-4emYzyqWX-10" edge="1">
          <mxGeometry relative="1" as="geometry" />
        </mxCell>
        <mxCell id="WzsJ2bpUAo-4emYzyqWX-34" style="edgeStyle=orthogonalEdgeStyle;rounded=0;orthogonalLoop=1;jettySize=auto;html=1;exitX=1.025;exitY=0.158;exitDx=0;exitDy=0;entryX=0;entryY=0.25;entryDx=0;entryDy=0;strokeColor=#000000;fontSize=19;exitPerimeter=0;" parent="1" source="382b91b5511bd0f7-6" target="WzsJ2bpUAo-4emYzyqWX-9" edge="1">
          <mxGeometry relative="1" as="geometry" />
        </mxCell>
        <mxCell id="382b91b5511bd0f7-6" value="Idle" style="rounded=1;whiteSpace=wrap;html=1;arcSize=24;fillColor=#FFFFFF;strokeColor=#000000;shadow=0;comic=0;labelBackgroundColor=none;fontFamily=Verdana;fontSize=12;fontColor=#000000;align=center;" parent="1" vertex="1">
          <mxGeometry x="490" y="210" width="120" height="430" as="geometry" />
        </mxCell>
        <mxCell id="WzsJ2bpUAo-4emYzyqWX-2" value="" style="ellipse;html=1;shape=endState;fillColor=#000000;strokeColor=#000000;" parent="1" vertex="1">
          <mxGeometry x="535" y="790" width="30" height="30" as="geometry" />
        </mxCell>
        <mxCell id="WzsJ2bpUAo-4emYzyqWX-8" style="edgeStyle=orthogonalEdgeStyle;rounded=0;orthogonalLoop=1;jettySize=auto;html=1;entryX=0.5;entryY=0;entryDx=0;entryDy=0;strokeColor=#000000;" parent="1" source="WzsJ2bpUAo-4emYzyqWX-6" target="382b91b5511bd0f7-6" edge="1">
          <mxGeometry relative="1" as="geometry" />
        </mxCell>
        <mxCell id="WzsJ2bpUAo-4emYzyqWX-6" value="Initialising" style="whiteSpace=wrap;html=1;fontFamily=Verdana;fillColor=#FFFFFF;strokeColor=#000000;fontColor=#000000;rounded=1;arcSize=24;shadow=0;comic=0;labelBackgroundColor=none;" parent="1" vertex="1">
          <mxGeometry x="490" y="80" width="120" height="60" as="geometry" />
        </mxCell>
        <mxCell id="WzsJ2bpUAo-4emYzyqWX-35" style="edgeStyle=orthogonalEdgeStyle;rounded=0;orthogonalLoop=1;jettySize=auto;html=1;exitX=0;exitY=0.5;exitDx=0;exitDy=0;entryX=1;entryY=0.25;entryDx=0;entryDy=0;strokeColor=#000000;fontSize=19;" parent="1" source="WzsJ2bpUAo-4emYzyqWX-9" target="382b91b5511bd0f7-6" edge="1">
          <mxGeometry relative="1" as="geometry" />
        </mxCell>
        <mxCell id="WSZoV0Bkp2RybLHJd7zS-13" style="edgeStyle=orthogonalEdgeStyle;rounded=0;orthogonalLoop=1;jettySize=auto;html=1;entryX=0.75;entryY=0;entryDx=0;entryDy=0;" edge="1" parent="1" source="WzsJ2bpUAo-4emYzyqWX-9" target="382b91b5511bd0f7-6">
          <mxGeometry relative="1" as="geometry">
            <mxPoint x="590" y="150" as="targetPoint" />
            <Array as="points">
              <mxPoint x="1250" y="315" />
              <mxPoint x="1250" y="150" />
              <mxPoint x="580" y="150" />
            </Array>
          </mxGeometry>
        </mxCell>
        <mxCell id="WzsJ2bpUAo-4emYzyqWX-9" value="" style="rounded=1;whiteSpace=wrap;html=1;strokeColor=#000000;" parent="1" vertex="1">
          <mxGeometry x="780" y="240" width="400" height="150" as="geometry" />
        </mxCell>
        <mxCell id="WzsJ2bpUAo-4emYzyqWX-32" style="edgeStyle=orthogonalEdgeStyle;rounded=0;orthogonalLoop=1;jettySize=auto;html=1;exitX=1;exitY=0.5;exitDx=0;exitDy=0;strokeColor=#000000;fontSize=11;" parent="1" source="WzsJ2bpUAo-4emYzyqWX-10" edge="1">
          <mxGeometry relative="1" as="geometry">
            <mxPoint x="490" y="485" as="targetPoint" />
          </mxGeometry>
        </mxCell>
        <mxCell id="WzsJ2bpUAo-4emYzyqWX-37" style="edgeStyle=orthogonalEdgeStyle;rounded=0;orthogonalLoop=1;jettySize=auto;html=1;strokeColor=#000000;fontSize=19;entryX=0.25;entryY=0;entryDx=0;entryDy=0;" parent="1" source="WzsJ2bpUAo-4emYzyqWX-10" target="382b91b5511bd0f7-6" edge="1">
          <mxGeometry relative="1" as="geometry">
            <mxPoint x="470" y="150" as="targetPoint" />
            <Array as="points">
              <mxPoint x="-300" y="485" />
              <mxPoint x="-300" y="150" />
              <mxPoint x="520" y="150" />
            </Array>
          </mxGeometry>
        </mxCell>
        <mxCell id="WzsJ2bpUAo-4emYzyqWX-10" value="" style="rounded=1;whiteSpace=wrap;html=1;strokeColor=#000000;" parent="1" vertex="1">
          <mxGeometry x="-110" y="410" width="400" height="150" as="geometry" />
        </mxCell>
        <mxCell id="WzsJ2bpUAo-4emYzyqWX-11" value="&lt;font style=&quot;font-size: 19px;&quot;&gt;&lt;font style=&quot;font-size: 19px;&quot;&gt;Shutdown&lt;/font&gt;()&lt;/font&gt;" style="text;html=1;align=center;verticalAlign=middle;resizable=0;points=[];autosize=1;strokeColor=none;fillColor=none;" parent="1" vertex="1">
          <mxGeometry x="565" y="710" width="120" height="40" as="geometry" />
        </mxCell>
        <mxCell id="WzsJ2bpUAo-4emYzyqWX-14" style="edgeStyle=orthogonalEdgeStyle;rounded=0;orthogonalLoop=1;jettySize=auto;html=1;strokeColor=#000000;fontSize=19;" parent="1" source="WzsJ2bpUAo-4emYzyqWX-12" edge="1">
          <mxGeometry relative="1" as="geometry">
            <mxPoint x="490" y="305" as="targetPoint" />
          </mxGeometry>
        </mxCell>
        <mxCell id="WzsJ2bpUAo-4emYzyqWX-12" value="" style="rounded=1;whiteSpace=wrap;html=1;strokeColor=#000000;" parent="1" vertex="1">
          <mxGeometry x="-110" y="230" width="400" height="150" as="geometry" />
        </mxCell>
        <mxCell id="WzsJ2bpUAo-4emYzyqWX-15" value="addRental()" style="text;html=1;align=center;verticalAlign=middle;resizable=0;points=[];autosize=1;strokeColor=none;fillColor=none;fontSize=19;" parent="1" vertex="1">
          <mxGeometry x="340" y="240" width="120" height="40" as="geometry" />
        </mxCell>
        <mxCell id="WzsJ2bpUAo-4emYzyqWX-21" value="" style="endArrow=classic;html=1;rounded=0;strokeColor=#000000;fontSize=19;exitX=0;exitY=0.5;exitDx=0;exitDy=0;entryX=0.017;entryY=0.024;entryDx=0;entryDy=0;entryPerimeter=0;" parent="1" source="WzsJ2bpUAo-4emYzyqWX-12" target="382b91b5511bd0f7-6" edge="1">
          <mxGeometry width="50" height="50" relative="1" as="geometry">
            <mxPoint x="-330" y="270" as="sourcePoint" />
            <mxPoint x="470" y="200" as="targetPoint" />
            <Array as="points">
              <mxPoint x="-230" y="305" />
              <mxPoint x="-230" y="190" />
              <mxPoint x="120" y="190" />
              <mxPoint x="320" y="190" />
              <mxPoint x="410" y="190" />
              <mxPoint x="460" y="190" />
            </Array>
          </mxGeometry>
        </mxCell>
        <mxCell id="WzsJ2bpUAo-4emYzyqWX-27" style="edgeStyle=orthogonalEdgeStyle;rounded=0;orthogonalLoop=1;jettySize=auto;html=1;strokeColor=#000000;fontSize=19;entryX=1;entryY=0.5;entryDx=0;entryDy=0;" parent="1" source="WzsJ2bpUAo-4emYzyqWX-25" target="WzsJ2bpUAo-4emYzyqWX-28" edge="1">
          <mxGeometry relative="1" as="geometry">
            <mxPoint x="255" y="500" as="targetPoint" />
          </mxGeometry>
        </mxCell>
        <mxCell id="WzsJ2bpUAo-4emYzyqWX-25" value="" style="ellipse;html=1;shape=startState;fillColor=#000000;strokeColor=#ff0000;fontSize=19;" parent="1" vertex="1">
          <mxGeometry x="240" y="290" width="30" height="30" as="geometry" />
        </mxCell>
        <mxCell id="WzsJ2bpUAo-4emYzyqWX-30" style="edgeStyle=orthogonalEdgeStyle;rounded=0;orthogonalLoop=1;jettySize=auto;html=1;exitX=0;exitY=0.5;exitDx=0;exitDy=0;strokeColor=#000000;fontSize=11;" parent="1" source="WzsJ2bpUAo-4emYzyqWX-28" target="WzsJ2bpUAo-4emYzyqWX-29" edge="1">
          <mxGeometry relative="1" as="geometry" />
        </mxCell>
        <mxCell id="WzsJ2bpUAo-4emYzyqWX-28" value="&lt;font style=&quot;font-size: 11px;&quot;&gt;Add Rental to Customer Rental Record&lt;/font&gt;" style="rounded=1;whiteSpace=wrap;html=1;strokeColor=#000000;fontSize=19;fillColor=#FFFFFF;" parent="1" vertex="1">
          <mxGeometry x="30" y="275" width="120" height="60" as="geometry" />
        </mxCell>
        <mxCell id="WzsJ2bpUAo-4emYzyqWX-29" value="" style="ellipse;html=1;shape=endState;fillColor=#000000;strokeColor=#ff0000;fontSize=11;" parent="1" vertex="1">
          <mxGeometry x="-80" y="290" width="30" height="30" as="geometry" />
        </mxCell>
        <mxCell id="WzsJ2bpUAo-4emYzyqWX-33" value="&lt;font style=&quot;font-size: 19px;&quot;&gt;statement()&lt;/font&gt;" style="text;html=1;align=center;verticalAlign=middle;resizable=0;points=[];autosize=1;strokeColor=none;fillColor=none;fontSize=11;" parent="1" vertex="1">
          <mxGeometry x="330" y="410" width="120" height="40" as="geometry" />
        </mxCell>
        <mxCell id="WzsJ2bpUAo-4emYzyqWX-36" value="htmlStatement()" style="text;html=1;align=center;verticalAlign=middle;resizable=0;points=[];autosize=1;strokeColor=none;fillColor=none;fontSize=19;" parent="1" vertex="1">
          <mxGeometry x="620" y="230" width="160" height="40" as="geometry" />
        </mxCell>
        <mxCell id="WSZoV0Bkp2RybLHJd7zS-11" style="edgeStyle=orthogonalEdgeStyle;rounded=0;orthogonalLoop=1;jettySize=auto;html=1;exitX=0;exitY=0.5;exitDx=0;exitDy=0;entryX=1;entryY=0.5;entryDx=0;entryDy=0;" edge="1" parent="1" source="WSZoV0Bkp2RybLHJd7zS-1" target="WSZoV0Bkp2RybLHJd7zS-7">
          <mxGeometry relative="1" as="geometry" />
        </mxCell>
        <mxCell id="WSZoV0Bkp2RybLHJd7zS-1" value="" style="ellipse;html=1;shape=startState;fillColor=#000000;strokeColor=#ff0000;" vertex="1" parent="1">
          <mxGeometry x="210" y="470" width="30" height="30" as="geometry" />
        </mxCell>
        <mxCell id="WSZoV0Bkp2RybLHJd7zS-9" style="edgeStyle=orthogonalEdgeStyle;rounded=0;orthogonalLoop=1;jettySize=auto;html=1;entryX=0;entryY=0.5;entryDx=0;entryDy=0;" edge="1" parent="1" source="WSZoV0Bkp2RybLHJd7zS-3" target="WSZoV0Bkp2RybLHJd7zS-8">
          <mxGeometry relative="1" as="geometry" />
        </mxCell>
        <mxCell id="WSZoV0Bkp2RybLHJd7zS-3" value="" style="ellipse;html=1;shape=startState;fillColor=#000000;strokeColor=#ff0000;" vertex="1" parent="1">
          <mxGeometry x="810" y="300" width="30" height="30" as="geometry" />
        </mxCell>
        <mxCell id="WSZoV0Bkp2RybLHJd7zS-5" value="" style="ellipse;html=1;shape=endState;fillColor=#000000;strokeColor=#ff0000;" vertex="1" parent="1">
          <mxGeometry x="-80" y="470" width="30" height="30" as="geometry" />
        </mxCell>
        <mxCell id="WSZoV0Bkp2RybLHJd7zS-6" value="" style="ellipse;html=1;shape=endState;fillColor=#000000;strokeColor=#ff0000;" vertex="1" parent="1">
          <mxGeometry x="1110" y="300" width="30" height="30" as="geometry" />
        </mxCell>
        <mxCell id="WSZoV0Bkp2RybLHJd7zS-12" style="edgeStyle=orthogonalEdgeStyle;rounded=0;orthogonalLoop=1;jettySize=auto;html=1;entryX=1;entryY=0.5;entryDx=0;entryDy=0;" edge="1" parent="1" source="WSZoV0Bkp2RybLHJd7zS-7" target="WSZoV0Bkp2RybLHJd7zS-5">
          <mxGeometry relative="1" as="geometry" />
        </mxCell>
        <mxCell id="WSZoV0Bkp2RybLHJd7zS-7" value="Creation of customer statement using rental record" style="rounded=1;whiteSpace=wrap;html=1;" vertex="1" parent="1">
          <mxGeometry x="30" y="455" width="120" height="60" as="geometry" />
        </mxCell>
        <mxCell id="WSZoV0Bkp2RybLHJd7zS-10" style="edgeStyle=orthogonalEdgeStyle;rounded=0;orthogonalLoop=1;jettySize=auto;html=1;entryX=0;entryY=0.5;entryDx=0;entryDy=0;" edge="1" parent="1" source="WSZoV0Bkp2RybLHJd7zS-8" target="WSZoV0Bkp2RybLHJd7zS-6">
          <mxGeometry relative="1" as="geometry" />
        </mxCell>
        <mxCell id="WSZoV0Bkp2RybLHJd7zS-8" value="Creation of HTML statemen using customer rental record" style="rounded=1;whiteSpace=wrap;html=1;" vertex="1" parent="1">
          <mxGeometry x="920" y="285" width="120" height="60" as="geometry" />
        </mxCell>
      </root>
    </mxGraphModel>
  </diagram>
</mxfile>
